<?xml version="1.0" encoding="utf-8"?>
<!-- Generator: Adobe Illustrator 23.0.1, SVG Export Plug-In . SVG Version: 6.00 Build 0)  -->
<svg version="1.1" id="Layer_1" xmlns="http://www.w3.org/2000/svg" xmlns:xlink="http://www.w3.org/1999/xlink" x="0px" y="0px"
	 viewBox="0 0 679.12 211.46" style="enable-background:new 0 0 679.12 211.46;" xml:space="preserve">
<style type="text/css">
	.st0{fill:#FFFFFF;}
</style>
<g>
	<path class="st0" d="M231.86,81.65v6.81h-18.02c-1.24,0-2.41,0.23-3.52,0.7c-1.11,0.46-2.08,1.11-2.9,1.93
		c-0.83,0.83-1.47,1.79-1.93,2.9c-0.46,1.11-0.7,2.28-0.7,3.52c0,1.24,0.23,2.4,0.7,3.48s1.11,2.04,1.93,2.86
		c0.82,0.83,1.79,1.47,2.9,1.93c1.11,0.46,2.28,0.7,3.52,0.7h4.8c2.17,0,4.22,0.41,6.15,1.24c1.93,0.83,3.61,1.96,5.03,3.4
		c1.42,1.44,2.54,3.13,3.37,5.07c0.82,1.93,1.24,3.98,1.24,6.15s-0.41,4.22-1.24,6.15c-0.83,1.93-1.95,3.61-3.37,5.03
		c-1.42,1.42-3.09,2.54-5.03,3.36c-1.93,0.83-3.98,1.24-6.15,1.24h-18.1v-6.73h18.1c1.24,0,2.41-0.23,3.52-0.7
		c1.11-0.46,2.06-1.11,2.86-1.93c0.8-0.82,1.44-1.79,1.93-2.9c0.49-1.11,0.74-2.28,0.74-3.52s-0.25-2.41-0.74-3.52
		c-0.49-1.11-1.13-2.08-1.93-2.9c-0.8-0.82-1.75-1.47-2.86-1.93c-1.11-0.46-2.28-0.7-3.52-0.7h-4.8c-2.17,0-4.22-0.41-6.15-1.24
		c-1.93-0.82-3.62-1.95-5.07-3.37c-1.44-1.42-2.58-3.09-3.4-5.03c-0.83-1.93-1.24-3.98-1.24-6.15c0-2.22,0.41-4.28,1.24-6.19
		c0.82-1.91,1.96-3.58,3.4-5.03c1.44-1.44,3.13-2.58,5.07-3.4c1.93-0.82,3.98-1.24,6.15-1.24H231.86z"/>
	<path class="st0" d="M282.37,118.39c0,2.84-0.54,5.49-1.62,7.97c-1.08,2.48-2.55,4.64-4.41,6.5s-4.04,3.33-6.54,4.41
		c-2.5,1.08-5.17,1.62-8.01,1.62c-2.89,0-5.58-0.54-8.08-1.62c-2.5-1.08-4.68-2.55-6.54-4.41s-3.33-4.02-4.41-6.5
		c-1.08-2.48-1.62-5.13-1.62-7.97v-16.86c0-2.84,0.54-5.5,1.62-8.01c1.08-2.5,2.55-4.68,4.41-6.54s4.04-3.33,6.54-4.41
		c2.5-1.08,5.19-1.62,8.08-1.62c2.84,0,5.5,0.54,8.01,1.62c2.5,1.08,4.68,2.55,6.54,4.41s3.33,4.04,4.41,6.54
		c1.08,2.5,1.62,5.17,1.62,8.01V118.39z M275.64,101.53c0-1.91-0.36-3.7-1.08-5.38c-0.72-1.68-1.71-3.15-2.98-4.41
		c-1.26-1.26-2.73-2.26-4.41-2.98c-1.68-0.72-3.47-1.08-5.38-1.08c-1.91,0-3.7,0.36-5.38,1.08c-1.68,0.72-3.15,1.71-4.41,2.98
		c-1.26,1.26-2.26,2.73-2.98,4.41c-0.72,1.68-1.08,3.47-1.08,5.38v16.86c0,1.91,0.36,3.7,1.08,5.38c0.72,1.68,1.71,3.13,2.98,4.37
		c1.26,1.24,2.73,2.22,4.41,2.94c1.68,0.72,3.47,1.08,5.38,1.08c1.91,0,3.7-0.36,5.38-1.08c1.67-0.72,3.14-1.7,4.41-2.94
		c1.26-1.24,2.25-2.69,2.98-4.37c0.72-1.68,1.08-3.47,1.08-5.38V101.53z"/>
	<path class="st0" d="M330.64,118.16c0,2.84-0.54,5.51-1.62,8.01c-1.08,2.5-2.55,4.68-4.41,6.54s-4.04,3.33-6.54,4.41
		c-2.5,1.08-5.17,1.62-8.01,1.62c-2.89,0-5.58-0.54-8.08-1.62c-2.5-1.08-4.68-2.55-6.54-4.41c-1.86-1.86-3.33-4.03-4.41-6.54
		c-1.08-2.5-1.62-5.17-1.62-8.01V81.65h6.81v36.51c0,1.91,0.36,3.7,1.08,5.38c0.72,1.68,1.71,3.15,2.98,4.41
		c1.26,1.26,2.73,2.26,4.41,2.98c1.67,0.72,3.47,1.08,5.38,1.08c1.91,0,3.7-0.36,5.38-1.08c1.68-0.72,3.15-1.71,4.41-2.98
		c1.26-1.26,2.26-2.73,2.98-4.41c0.72-1.68,1.08-3.47,1.08-5.38V81.65h6.73V118.16z"/>
	<path class="st0" d="M371.71,96.23c-0.72-1.68-1.72-3.15-2.98-4.41c-1.26-1.26-2.73-2.26-4.41-2.98c-1.68-0.72-3.47-1.08-5.38-1.08
		c-1.91,0-3.7,0.36-5.38,1.08c-1.68,0.72-3.15,1.72-4.41,2.98c-1.26,1.26-2.26,2.73-2.98,4.41c-0.72,1.68-1.08,3.47-1.08,5.38v36.51
		h-6.73v-36.51c0-2.84,0.54-5.5,1.62-8.01c1.08-2.5,2.55-4.68,4.41-6.54s4.03-3.33,6.54-4.41c2.5-1.08,5.17-1.62,8.01-1.62
		c2.83,0,5.5,0.54,8.01,1.62c2.5,1.08,4.68,2.55,6.54,4.41s3.33,4.04,4.41,6.54c1.08,2.5,1.62,5.17,1.62,8.01v36.51h-6.73v-36.51
		C372.8,99.7,372.44,97.91,371.71,96.23z"/>
	<path class="st0" d="M387.18,137.96V81.73h19.18c2.84,0,5.5,0.54,8.01,1.62c2.5,1.08,4.68,2.55,6.54,4.41s3.33,4.04,4.41,6.54
		c1.08,2.5,1.62,5.17,1.62,8.01v15.32c0,2.84-0.54,5.51-1.62,8.01c-1.08,2.5-2.55,4.68-4.41,6.54s-4.04,3.33-6.54,4.41
		c-2.5,1.08-5.17,1.62-8.01,1.62L387.18,137.96z M393.92,131.47h12.45c1.91,0,3.7-0.36,5.38-1.08c1.68-0.72,3.15-1.71,4.41-2.98
		c1.26-1.26,2.26-2.73,2.98-4.41c0.72-1.68,1.08-3.47,1.08-5.38V102.3c0-1.91-0.36-3.7-1.08-5.38c-0.72-1.67-1.71-3.13-2.98-4.37
		c-1.26-1.24-2.73-2.22-4.41-2.94c-1.68-0.72-3.47-1.08-5.38-1.08h-12.45V131.47z"/>
	<path class="st0" d="M467.94,81.65v6.81h-18.02c-1.24,0-2.41,0.23-3.52,0.7c-1.11,0.46-2.08,1.11-2.9,1.93
		c-0.83,0.83-1.47,1.79-1.93,2.9c-0.46,1.11-0.7,2.28-0.7,3.52c0,1.24,0.23,2.4,0.7,3.48s1.11,2.04,1.93,2.86
		c0.82,0.83,1.79,1.47,2.9,1.93c1.11,0.46,2.28,0.7,3.52,0.7h4.8c2.17,0,4.22,0.41,6.15,1.24c1.93,0.83,3.61,1.96,5.03,3.4
		c1.42,1.44,2.54,3.13,3.37,5.07c0.82,1.93,1.24,3.98,1.24,6.15s-0.41,4.22-1.24,6.15c-0.83,1.93-1.95,3.61-3.37,5.03
		c-1.42,1.42-3.09,2.54-5.03,3.36c-1.93,0.83-3.98,1.24-6.15,1.24h-18.1v-6.73h18.1c1.24,0,2.41-0.23,3.52-0.7
		c1.11-0.46,2.06-1.11,2.86-1.93c0.8-0.82,1.44-1.79,1.93-2.9c0.49-1.11,0.74-2.28,0.74-3.52s-0.25-2.41-0.74-3.52
		c-0.49-1.11-1.13-2.08-1.93-2.9c-0.8-0.82-1.75-1.47-2.86-1.93c-1.11-0.46-2.28-0.7-3.52-0.7h-4.8c-2.17,0-4.22-0.41-6.15-1.24
		c-1.93-0.82-3.62-1.95-5.07-3.37c-1.44-1.42-2.58-3.09-3.4-5.03c-0.83-1.93-1.24-3.98-1.24-6.15c0-2.22,0.41-4.28,1.24-6.19
		c0.82-1.91,1.96-3.58,3.4-5.03c1.44-1.44,3.13-2.58,5.07-3.4c1.93-0.82,3.98-1.24,6.15-1.24H467.94z"/>
	<path class="st0" d="M496.64,81.65c2.17,0,4.2,0.41,6.11,1.24c1.91,0.83,3.58,1.96,5.03,3.4c1.44,1.44,2.58,3.12,3.4,5.03
		c0.82,1.91,1.24,3.97,1.24,6.19c0,2.17-0.41,4.22-1.24,6.15c-0.83,1.93-1.96,3.61-3.4,5.03c-1.44,1.42-3.12,2.54-5.03,3.37
		c-1.91,0.83-3.95,1.24-6.11,1.24h-12.53v24.83h-6.73V81.65H496.64z M496.64,106.48c1.24,0,2.41-0.23,3.52-0.7
		c1.11-0.46,2.06-1.11,2.86-1.93c0.8-0.82,1.44-1.78,1.93-2.86s0.74-2.24,0.74-3.48c0-1.24-0.25-2.41-0.74-3.52
		c-0.49-1.11-1.13-2.08-1.93-2.9c-0.8-0.82-1.75-1.47-2.86-1.93c-1.11-0.46-2.28-0.7-3.52-0.7h-12.53v18.02H496.64z"/>
	<path class="st0" d="M524.88,117.7v20.42h-6.81v-36.51c0-2.84,0.54-5.5,1.62-8.01c1.08-2.5,2.55-4.68,4.41-6.54
		s4.03-3.33,6.54-4.41c2.5-1.08,5.2-1.62,8.08-1.62c2.84,0,5.5,0.54,8.01,1.62c2.5,1.08,4.68,2.55,6.54,4.41s3.33,4.04,4.41,6.54
		c1.08,2.5,1.62,5.17,1.62,8.01v36.51h-6.73V117.7H524.88z M552.57,101.61c0-1.91-0.36-3.7-1.08-5.38
		c-0.72-1.68-1.71-3.15-2.98-4.41c-1.26-1.26-2.73-2.26-4.41-2.98c-1.68-0.72-3.47-1.08-5.38-1.08c-1.91,0-3.7,0.36-5.38,1.08
		c-1.68,0.72-3.15,1.72-4.41,2.98c-1.26,1.26-2.26,2.73-2.98,4.41c-0.72,1.68-1.08,3.47-1.08,5.38v9.36h27.69V101.61z"/>
	<path class="st0" d="M587.92,80.95c3.82,0,7.36,1.06,10.64,3.17c3.27,2.12,5.94,4.95,8.01,8.51l-5.96,3.25
		c-1.39-2.48-3.2-4.46-5.41-5.96c-2.22-1.5-4.64-2.24-7.27-2.24c-1.91,0-3.7,0.36-5.38,1.08c-1.68,0.72-3.15,1.71-4.41,2.98
		c-1.26,1.26-2.26,2.73-2.98,4.41c-0.72,1.68-1.08,3.47-1.08,5.38v16.86c0,1.91,0.36,3.7,1.08,5.38c0.72,1.68,1.71,3.13,2.98,4.37
		s2.73,2.22,4.41,2.94c1.68,0.72,3.47,1.08,5.38,1.08c2.63,0,5.05-0.73,7.27-2.2c2.22-1.47,4.02-3.44,5.41-5.92l5.96,3.33
		c-2.06,3.51-4.72,6.3-7.97,8.39c-3.25,2.09-6.81,3.13-10.67,3.13c-2.84,0-5.51-0.54-8.01-1.62c-2.5-1.08-4.68-2.55-6.54-4.41
		c-1.86-1.86-3.33-4.02-4.41-6.5c-1.08-2.48-1.62-5.13-1.62-7.97v-16.86c0-2.84,0.54-5.5,1.62-8.01c1.08-2.5,2.55-4.68,4.41-6.54
		c1.86-1.86,4.03-3.33,6.54-4.41C582.42,81.49,585.08,80.95,587.92,80.95z"/>
	<path class="st0" d="M613.52,81.65h35.04v6.81h-28.31v18.02h24.75v6.81h-24.75v18.1h28.31v6.73h-35.04V81.65z"/>
</g>
<g>
	<path class="st0" d="M101.11,43.42c-37.15,0-67.37,30.22-67.37,67.37s30.22,67.37,67.37,67.37s67.37-30.22,67.37-67.37
		S138.26,43.42,101.11,43.42z M101.11,169.24c-32.23,0-58.45-26.22-58.45-58.45s26.22-58.45,58.45-58.45s58.45,26.22,58.45,58.45
		S133.34,169.24,101.11,169.24z"/>
	<path class="st0" d="M64.22,88.4c-3.7,0-6.69,3-6.69,6.69v31.4c0,3.7,3,6.69,6.69,6.69s6.69-3,6.69-6.69v-31.4
		C70.91,91.4,67.91,88.4,64.22,88.4z"/>
	<path class="st0" d="M82.67,97.82c-3.7,0-6.69,3-6.69,6.69v12.56c0,3.7,3,6.69,6.69,6.69s6.69-3,6.69-6.69v-12.56
		C89.36,100.82,86.36,97.82,82.67,97.82z"/>
	<path class="st0" d="M101.11,75.37c-3.7,0-6.69,3-6.69,6.69v57.46c0,3.7,3,6.69,6.69,6.69s6.69-3,6.69-6.69V82.06
		C107.8,78.37,104.81,75.37,101.11,75.37z"/>
	<path class="st0" d="M119.56,88.4c-3.7,0-6.69,3-6.69,6.69v31.4c0,3.7,3,6.69,6.69,6.69s6.69-3,6.69-6.69v-31.4
		C126.25,91.4,123.25,88.4,119.56,88.4z"/>
	<path class="st0" d="M138.01,97.82c-3.7,0-6.69,3-6.69,6.69v12.56c0,3.7,3,6.69,6.69,6.69s6.69-3,6.69-6.69v-12.56
		C144.7,100.82,141.7,97.82,138.01,97.82z"/>
</g>
</svg>
